<svg width="20" height="20" fill="none" xmlns="http://www.w3.org/2000/svg"><path d="M17.189 4.038H2.81a.512.512 0 00-.511.511v1.029c0 .047.051.102.093.124l7.558 4.316a.126.126 0 00.128-.001l7.329-4.311c.041-.023.15-.084.191-.112.05-.034.101-.064.101-.125v-.92a.512.512 0 00-.511-.511zm.447 3.092a.129.129 0 00-.129 0L13.36 9.57a.128.128 0 00-.029.197l4.148 4.472a.126.126 0 00.093.04.127.127 0 00.128-.127V7.24a.128.128 0 00-.064-.11zm-5.471 3.26a.127.127 0 00-.158-.024l-1.663.978a.65.65 0 01-.641.005l-1.463-.836a.128.128 0 00-.15.017l-5.556 5.153a.128.128 0 00.023.204c.086.05.17.075.254.075h14.23a.127.127 0 00.094-.215l-4.97-5.357zm-5.298-.47a.128.128 0 00-.023-.204L2.49 7.229a.128.128 0 00-.191.111v6.524a.127.127 0 00.215.094L6.867 9.92z" fill="#000"/></svg>