<svg width="24" height="29" fill="none" xmlns="http://www.w3.org/2000/svg"><path fill="#fff" d="M0 0h24v29H0z"/><path d="M21.07 0H2.935C1.316 0 0 2.09 0 4.66v19.68C0 26.91 1.316 29 2.935 29h18.13C22.684 29 24 26.91 24 24.34V4.668C24.005 2.098 22.689 0 21.07 0zm1.594 24.34c0 1.396-.715 2.531-1.594 2.531H2.935c-.88 0-1.594-1.135-1.594-2.53V4.667c0-1.396.715-2.531 1.594-2.531h18.13c.88 0 1.594 1.135 1.594 2.53V24.34h.005z" fill="#000"/><path d="M15.136 14.256l5.87-8.358c.273-.394.297-1.065.05-1.506-.25-.434-.671-.473-.95-.08l-8.094 11.536-1.579-2.239c-.005-.008-.01-.016-.01-.024a1.33 1.33 0 00-.109-.15l-6.426-9.13c-.278-.394-.7-.355-.948.087-.249.441-.224 1.112.054 1.506l5.94 8.428-5.915 8.792c-.268.402-.283 1.072-.03 1.506.134.22.313.339.492.339.164 0 .328-.095.457-.284l6.004-8.917 1.628 2.31c.13.181.288.268.447.268.16 0 .323-.095.447-.276l1.674-2.381 5.969 9.004c.129.197.298.292.462.292.178 0 .352-.11.486-.331.253-.426.244-1.104-.025-1.506l-5.894-8.886z" fill="#000"/></svg>