<svg id="OBJECT" viewBox="0 0 512 512" xmlns="http://www.w3.org/2000/svg"><defs><style>.cls-1{fill:#fff}.cls-2{fill:#3d9ae2}.cls-3{fill:#bddbff}</style></defs><path class="cls-1" d="M182.5 347.5h-50l-15-80h50l15 80z"/><path class="cls-2" d="M182.5 355h-50a7.49 7.49 0 01-7.37-6.12l-15-80a7.5 7.5 0 017.37-8.88h50a7.49 7.49 0 017.37 6.12l15 80a7.5 7.5 0 01-7.37 8.88zm-43.78-15h34.74l-12.18-65h-34.74z"/><path class="cls-3" d="M134.44 431h-9.59a20 20 0 01-19.8-17.17L87.5 291h50l16.74 117.17a20 20 0 01-19.8 22.83z"/><path class="cls-2" d="M134.44 438.5h-9.59a27.64 27.64 0 01-27.23-23.61L80.08 292.06a7.49 7.49 0 017.42-8.56h50a7.49 7.49 0 017.42 6.44l16.74 117.17a27.5 27.5 0 01-27.22 31.39zm-38.29-140l16.32 114.27a12.57 12.57 0 0012.38 10.73h9.59a12.5 12.5 0 0012.37-14.27L131 298.5z"/><circle class="cls-1" cx="434.5" cy="231" r="70"/><path class="cls-2" d="M434.5 308.5A77.5 77.5 0 11512 231a77.59 77.59 0 01-77.5 77.5zm0-140A62.5 62.5 0 10497 231a62.57 62.57 0 00-62.5-62.5z"/><rect class="cls-3" height="160" rx="20" ry="20" width="140" x="67.5" y="151"/><path class="cls-2" d="M187.5 318.5h-100A27.54 27.54 0 0160 291V171a27.54 27.54 0 0127.5-27.5h100A27.54 27.54 0 01215 171v120a27.54 27.54 0 01-27.5 27.5zm-100-160A12.52 12.52 0 0075 171v120a12.52 12.52 0 0012.5 12.5h100A12.52 12.52 0 00200 291V171a12.52 12.52 0 00-12.5-12.5z"/><path class="cls-3" d="M207.5 291l225 70V101l-225 70v120z"/><path class="cls-2" d="M432.5 368.5a7.41 7.41 0 01-2.23-.34l-225-70A7.5 7.5 0 01200 291V171a7.5 7.5 0 015.27-7.16l225-70A7.5 7.5 0 01440 101v260a7.49 7.49 0 01-7.5 7.5zm-217.5-83l210 65.33V111.19l-210 65.33z"/><rect class="cls-3" height="300" rx="20" ry="20" width="40" x="412.5" y="81"/><path class="cls-2" d="M432.5 388.5A27.54 27.54 0 01405 361V101a27.5 27.5 0 0155 0v260a27.54 27.54 0 01-27.5 27.5zm0-300A12.52 12.52 0 00420 101v260a12.5 12.5 0 0025 0V101a12.52 12.52 0 00-12.5-12.5z"/><path class="cls-1" d="M27.5 191h40v80h-40a20 20 0 01-20-20v-40a20 20 0 0120-20z"/><path class="cls-2" d="M67.5 278.5h-40A27.54 27.54 0 010 251v-40a27.54 27.54 0 0127.5-27.5h40A7.5 7.5 0 0175 191v80a7.5 7.5 0 01-7.5 7.5zm-40-80A12.52 12.52 0 0015 211v40a12.52 12.52 0 0012.5 12.5H60v-65zm145 0h-70a7.5 7.5 0 010-15h70a7.5 7.5 0 010 15zm0 40h-70a7.5 7.5 0 010-15h70a7.5 7.5 0 010 15zm0 40h-70a7.5 7.5 0 010-15h70a7.5 7.5 0 010 15z"/></svg>