<svg width="20" height="23" fill="none" xmlns="http://www.w3.org/2000/svg"><path d="M13.072 3.245c-2.986-3.328-7.847-3.328-10.833 0-2.985 3.329-2.985 8.744 0 12.073 2.66 2.963 6.801 3.28 9.786.967.062.33.206.647.437.904l4.35 4.847c.633.704 1.657.704 2.287 0 .634-.706.634-1.847 0-2.55l-4.348-4.849a1.575 1.575 0 00-.811-.486c2.077-3.326 1.792-7.941-.868-10.906zm-1.373 10.543c-2.23 2.484-5.858 2.484-8.087 0-2.228-2.485-2.228-6.528 0-9.012 2.23-2.484 5.857-2.484 8.087 0 2.23 2.484 2.23 6.527 0 9.012z" fill="#000"/></svg>