<svg width="24" height="24" fill="none" xmlns="http://www.w3.org/2000/svg"><path d="M12 .285c-3.786 0-6.867 2.798-6.867 6.238 0 3.44 3.08 6.238 6.867 6.238 3.786 0 6.867-2.799 6.867-6.238 0-3.44-3.08-6.238-6.867-6.238zm0 11.09c-2.945 0-5.34-2.177-5.34-4.852C6.66 3.848 9.054 1.67 12 1.67s5.34 2.177 5.34 4.852c0 2.675-2.395 4.852-5.34 4.852zm8.544 5.461c-1.88-1.734-4.373-2.689-7.018-2.689h-3.052c-2.645 0-5.138.955-7.017 2.689C1.586 18.562.556 20.839.556 23.25c0 .383.341.693.763.693h21.363c.42 0 .763-.31.763-.693 0-2.41-1.03-4.689-2.901-6.414zm-18.429 5.72c.382-3.93 3.985-7.023 8.36-7.023h3.051c4.374 0 7.977 3.092 8.359 7.024H2.115z" fill="#fff"/></svg>