<svg width="27" height="24" fill="none" xmlns="http://www.w3.org/2000/svg"><path d="M18.407 18.157v1.853c0 2.043-1.83 3.705-4.08 3.705H4.08C1.829 23.715 0 22.053 0 20.01V3.706C0 1.662 1.83 0 4.079 0h10.249c2.249 0 4.079 1.662 4.079 3.706v1.852c0 .512-.457.927-1.02.927s-1.02-.415-1.02-.927V3.706c0-1.022-.915-1.853-2.04-1.853H4.08c-1.124 0-2.04.831-2.04 1.853V20.01c0 1.021.916 1.853 2.04 1.853h10.249c1.124 0 2.04-.832 2.04-1.853v-1.853c0-.512.456-.926 1.019-.926s1.02.414 1.02.926zm6.952-7.89l-2.283-2.075a1.094 1.094 0 00-1.442 0 .867.867 0 000 1.31l1.624 1.476H11.013c-.563 0-1.02.414-1.02.926s.457.926 1.02.926h12.245l-1.624 1.476a.867.867 0 000 1.31c.199.18.46.271.72.271.262 0 .523-.09.722-.271l2.283-2.074c.994-.903.994-2.373 0-3.276z" fill="#fff"/></svg>