<svg width="28" height="21" fill="none" xmlns="http://www.w3.org/2000/svg"><path d="M26.221 13.137V6.344l.311-.085c1.193-.325 1.444-.876 1.444-1.281 0-.405-.25-.956-1.444-1.28L16.32.913C15.691.743 14.867.648 14 .648c-.869 0-1.693.095-2.322.266L1.466 3.697C.273 4.022.022 4.573.022 4.978c0 .405.25.956 1.444 1.281l3.82 1.04v5.61c0 .696.498 1.677 2.872 2.396 1.572.476 3.647.738 5.841.738 2.194 0 4.269-.262 5.841-.738 2.374-.72 2.873-1.7 2.873-2.397V7.3l1.87-.51v6.347c-1.018.311-1.754 1.187-1.754 2.216v3.187c0 1.289 1.154 2.338 2.573 2.338 1.42 0 2.574-1.049 2.574-2.338v-3.187c0-1.03-.736-1.905-1.755-2.216zM12.15 2.339c.473-.129 1.148-.203 1.85-.203.702 0 1.377.074 1.85.203l9.683 2.639-3.878 1.057-.006.002-5.798 1.58c-.474.129-1.149.203-1.85.203-.703 0-1.378-.074-1.851-.203l-5.8-1.58-.007-.002-3.878-1.057 9.683-2.639zm8.926 8.615c0 2.05-.297 2.498-1.752 2.939-1.41.427-3.3.662-5.324.662-2.023 0-3.914-.235-5.323-.662-1.455-.44-1.753-.889-1.753-.985V7.746l4.755 1.296c.63.171 1.453.266 2.321.266.868 0 1.692-.095 2.321-.266l4.755-1.296v3.208zm5.263 7.586c0 .469-.42.85-.935.85-.516 0-.936-.381-.936-.85v-3.188c0-.468.42-.85.936-.85.515 0 .935.382.935.85v3.188z" fill="#fff"/></svg>