<svg width="26" height="24" fill="none" xmlns="http://www.w3.org/2000/svg"><path d="M25.3 10.586l-.001-.001L14.693.95A2.504 2.504 0 0013 .313c-.64 0-1.24.226-1.693.637l-10.6 9.63-.01.01c-.929.848-.927 2.224.004 3.07a2.498 2.498 0 001.662.637h.423v7.09c0 1.404 1.256 2.545 2.801 2.545h4.15c.42 0 .761-.31.761-.692v-5.558c0-.64.574-1.162 1.279-1.162h2.447c.705 0 1.278.521 1.278 1.162v5.558c0 .383.34.692.762.692h4.15c1.544 0 2.8-1.141 2.8-2.544v-7.09h.393c.639 0 1.24-.227 1.692-.638.933-.847.933-2.226.001-3.074z" fill="#fff"/></svg>