<svg width="26" height="25" fill="none" xmlns="http://www.w3.org/2000/svg"><path d="M13.813 18.75h3.25v3.125h-3.25V18.75zm5.687 0h3.25v3.125H19.5V18.75zm-5.687-5.469h3.25v3.125h-3.25v-3.125zm5.687 0h3.25v3.125H19.5v-3.125z" fill="#fff"/><path d="M22.75 8.594h-4.875V5.469c0-1.328-1.056-2.344-2.438-2.344h-4.874c-1.382 0-2.438 1.016-2.438 2.344v3.125H3.25c-.487 0-.813.312-.813.781v.156l1.544 9.453c.082.782.813 1.328 1.625 1.328h6.582V18.75H5.606l-1.381-8.594H22.75V8.594zm-13-3.125c0-.469.325-.782.813-.782h4.874c.488 0 .813.313.813.782v3.125h-6.5V5.469z" fill="#fff"/></svg>