<svg width="26" height="23" fill="none" xmlns="http://www.w3.org/2000/svg"><path d="M18.988 1.84c.676 0 1.345.133 1.969.392a5.08 5.08 0 011.661 1.117 5.22 5.22 0 011.522 3.68 5.22 5.22 0 01-1.522 3.68L13 20.359l-9.618-9.65a5.22 5.22 0 01-1.522-3.68 5.22 5.22 0 011.522-3.68 5.09 5.09 0 011.662-1.117 5.128 5.128 0 015.598 1.117L13 5.74l2.349-2.374a5.053 5.053 0 011.663-1.13 5.09 5.09 0 011.976-.397zm0-1.84A6.99 6.99 0 0016.3.535a6.94 6.94 0 00-2.27 1.526L13 3.09l-1.03-1.03A6.958 6.958 0 009.7.537a7.009 7.009 0 00-5.376 0 6.957 6.957 0 00-2.27 1.524A7.07 7.07 0 000 7.038a7.07 7.07 0 002.054 4.977L13 23l10.946-10.985A7.07 7.07 0 0026 7.038a7.07 7.07 0 00-2.054-4.977 6.956 6.956 0 00-2.27-1.525A7.008 7.008 0 0018.988 0z" fill="#fff"/></svg>