<svg width="46" height="40" fill="none" xmlns="http://www.w3.org/2000/svg"><path d="M28.097 29.679c-.555.469-1.28.853-2.176 1.152-.854.256-1.856.384-3.008.384-1.536 0-2.816-.192-3.84-.576-.982-.384-1.622-1.046-1.92-1.984a727.325 727.325 0 00-2.944-9.088c-.768-2.347-1.366-4.395-1.792-6.144h-.32a697.688 697.688 0 00-.32 6.912 6303.7 6303.7 0 01-.128 6.016 140.6 140.6 0 01-.128 5.952 214.043 214.043 0 01-.256 6.656c-.555.213-1.28.384-2.176.512-.896.17-1.792.256-2.688.256-1.878 0-3.35-.299-4.416-.896C.96 38.233.449 37.145.449 35.567l1.856-32.64c.341-.555 1.088-1.152 2.24-1.792 1.152-.64 2.773-.96 4.864-.96 2.261 0 4.032.362 5.312 1.088 1.28.682 2.218 1.813 2.816 3.392.384 1.024.79 2.197 1.216 3.52.47 1.322.917 2.688 1.344 4.096.47 1.408.917 2.816 1.344 4.224.426 1.365.81 2.602 1.152 3.712h.32a535.894 535.894 0 013.072-10.368c1.024-3.371 1.962-6.187 2.816-8.448.64-.342 1.45-.619 2.432-.832 1.024-.256 2.154-.384 3.392-.384 2.09 0 3.797.32 5.12.96 1.322.597 2.09 1.472 2.304 2.624.17.853.341 2.176.512 3.968.213 1.749.426 3.733.64 5.952.213 2.218.426 4.565.64 7.04.213 2.474.405 4.864.576 7.168.213 2.261.384 4.352.512 6.272.128 1.877.213 3.328.256 4.352a7.61 7.61 0 01-2.304.896c-.768.213-1.77.32-3.008.32-1.622 0-2.987-.278-4.096-.832-1.11-.555-1.707-1.643-1.792-3.264a395.086 395.086 0 01-.512-12.544c-.043-3.712-.128-6.827-.256-9.344h-.32c-.427 1.664-1.046 3.754-1.856 6.272-.81 2.517-1.792 5.738-2.944 9.664z" fill="#fff"/></svg>