<svg width="27" height="22" fill="none" xmlns="http://www.w3.org/2000/svg"><path d="M23.996.942H3.632C2.096.942.846 2.078.846 3.473v12.148c0 1.396 1.25 2.531 2.786 2.531h6.56c.081 0 .157.035.205.094l2.393 2.948a1.3 1.3 0 001.014.467h.006c.401 0 .77-.167 1.012-.459l2.448-2.958a.264.264 0 01.202-.092h6.524c1.536 0 2.786-1.135 2.786-2.53V3.472c0-1.396-1.25-2.53-2.786-2.53zm1.266 14.68c0 .108-.017.213-.048.313l-7.806-6.216 7.854-5.922v11.824zm-1.266-13.3c.231 0 .449.058.636.157l-10.007 7.544a1.367 1.367 0 01-1.617 0L2.998 2.477c.187-.098.403-.154.633-.154h20.364zM2.414 15.936a1.049 1.049 0 01-.048-.314V3.794l7.857 5.923-7.809 6.218zm13.641 1.48l-2.244 2.71-2.191-2.699c-.333-.41-.866-.654-1.427-.654H3.668l7.739-6.162.63.475a2.956 2.956 0 001.78.583c.631 0 1.263-.195 1.778-.583l.628-.474 7.736 6.16h-6.487c-.554 0-1.084.241-1.417.644z" fill="#fff"/></svg>