<svg width="25" height="22" fill="none" xmlns="http://www.w3.org/2000/svg"><path d="M10.417 7.333h6.25v1.223h-6.25V7.333zm0 2.445h6.25V11h-6.25V9.778zm0 2.444h6.25v1.223h-6.25v-1.223zm0 2.445h6.25v1.222h-6.25v-1.222zM7.639 4.889h1.389V6.11h-1.39V4.89zm0 2.444h1.389v1.223h-1.39V7.333zm0 2.445h1.389V11h-1.39V9.778zm0 2.444h1.389v1.223h-1.39v-1.223zm0 2.445h1.389v1.222h-1.39v-1.222zm2.778-9.778V6.11h6.014a4.303 4.303 0 01-.619-1.222h-5.395z" fill="#fff"/><path d="M19.445 8.079v11.477H5.555V2.444H15.82c.135-.431.34-.843.612-1.222H5.556a1.49 1.49 0 00-.983.358c-.26.23-.406.54-.406.864v17.112c0 .324.146.635.406.864.26.229.614.358.983.358h13.889c.368 0 .721-.129.982-.358.26-.23.406-.54.406-.864V8.25a5.866 5.866 0 01-1.388-.171z" fill="#fff"/><path d="M20.833 6.722c1.918 0 3.473-1.368 3.473-3.055 0-1.688-1.555-3.056-3.473-3.056-1.917 0-3.472 1.368-3.472 3.056 0 1.687 1.555 3.055 3.472 3.055z" fill="#fff"/></svg>