<svg width="20" height="27" fill="none" xmlns="http://www.w3.org/2000/svg"><path d="M12.5 9.167a2.5 2.5 0 11-5 0 2.5 2.5 0 015 0zM5 14.583V15a3.333 3.333 0 003.333 3.333h3.334A3.333 3.333 0 0015 15v-.417a1.25 1.25 0 00-1.25-1.25h-7.5A1.25 1.25 0 005 14.583zM0 3.333v20a3.334 3.334 0 003.333 3.334h15.834a.833.833 0 000-1.667H3.333a1.667 1.667 0 01-1.666-1.667h16.666A1.667 1.667 0 0020 21.667V3.333A3.333 3.333 0 0016.667 0H3.333A3.333 3.333 0 000 3.333zm16.667-1.666a1.667 1.667 0 011.666 1.666v18.334H1.667V3.333a1.667 1.667 0 011.666-1.666h13.334z" fill="#FFFAF7"/></svg>